<svg id="Layer_2" data-name="Layer 2" xmlns="http://www.w3.org/2000/svg" viewBox="0 0 41.2 28.82"><defs><style>.cls-1{fill:none;stroke:#231f20;stroke-miterlimit:10;stroke-width:0.25px;}</style></defs><title>icon</title><line class="cls-1" x1="1.24" y1="21.2" x2="37.12" y2="16.82"/><path class="cls-1" d="M40,29.13l.75-6.25A36.09,36.09,0,0,0,31.25,13l-4.87-2.62" transform="translate(-3.63 -6.05)"/><line class="cls-1" x1="0.62" y1="27.2" x2="36.37" y2="23.07"/><line class="cls-1" x1="0.12" y1="28.7" x2="0.62" y2="27.2"/><line class="cls-1" x1="37.49" y1="25.14" x2="0.12" y2="28.7"/><path class="cls-1" d="M4.25,33.25l.63-6,21.5-16.87a5.11,5.11,0,0,1,1.5-3c.26-.24,1.62-1.52,2.75-1.12.85.3.61,1.2,1.63,1.88,1.19.79,2.34.11,2.88.88.41.59-.17,1.13.25,1.75.57.85,2,.3,2.5,1.13.41.64-.26,1.2.13,1.88.57,1,2.48.47,2.88,1.38.27.63-.47,1.29-.12,1.75s.77.14,1.38.25c1.55.28,2.94,2.46,2.5,3.63-.33.88-4.63,4.59-3.5,10.44" transform="translate(-3.63 -6.05)"/><path class="cls-1" d="M19.63,16.63c-1.54-.68-3.08-.29-3.62.63s.14,2.28.63,2.88A4.91,4.91,0,0,0,25,16.38c-.46-3.31-4.83-3.81-5.05-3.83-1-.09-1.32.2-1.45.33a1.34,1.34,0,0,0-.12,1.75,1.48,1.48,0,0,0,1.88-.37c.6-.76.13-2.39-1.25-4" transform="translate(-3.63 -6.05)"/></svg>